<svg width="165" height="32" viewBox="0 0 165 32" fill="none" xmlns="http://www.w3.org/2000/svg">
<path d="M0.939453 0.759766L21.5441 31.0628H143.971L164.576 0.759766H0.939453Z" fill="url(#paint0_linear_8_2091)"/>
<path d="M53.5441 21.3047V11.3873H57.0791C57.8507 11.3873 58.4899 11.5278 58.9968 11.8086C59.5036 12.0895 59.8829 12.4737 60.1347 12.9611C60.3865 13.4454 60.5124 13.991 60.5124 14.5979C60.5124 15.208 60.3849 15.7568 60.1299 16.2443C59.8781 16.7286 59.4971 17.1127 58.9871 17.3968C58.4802 17.6777 57.8426 17.8181 57.0743 17.8181H54.6434V16.5494H56.9387C57.4262 16.5494 57.8216 16.4655 58.1251 16.2976C58.4286 16.1265 58.6513 15.894 58.7934 15.6003C58.9354 15.3065 59.0064 14.9724 59.0064 14.5979C59.0064 14.2234 58.9354 13.8909 58.7934 13.6003C58.6513 13.3098 58.427 13.0822 58.1203 12.9175C57.8168 12.7529 57.4165 12.6706 56.9193 12.6706H55.0405V21.3047H53.5441ZM63.5983 11.3873V21.3047H62.1504V11.3873H63.5983ZM67.7108 21.4693C67.2394 21.4693 66.8133 21.3822 66.4323 21.2078C66.0514 21.0303 65.7496 20.7736 65.5268 20.4379C65.3073 20.1021 65.1975 19.6905 65.1975 19.2031C65.1975 18.7834 65.2782 18.438 65.4396 18.1668C65.6011 17.8956 65.819 17.6809 66.0934 17.5227C66.3678 17.3645 66.6745 17.2451 67.0134 17.1644C67.3524 17.0837 67.6978 17.0223 68.0497 16.9804C68.4952 16.9287 68.8568 16.8868 69.1344 16.8545C69.4121 16.819 69.6138 16.7625 69.7397 16.685C69.8656 16.6075 69.9286 16.4816 69.9286 16.3073V16.2734C69.9286 15.8505 69.8092 15.5228 69.5703 15.2904C69.3346 15.0579 68.9827 14.9417 68.5146 14.9417C68.0271 14.9417 67.643 15.0498 67.3621 15.2661C67.0845 15.4792 66.8924 15.7165 66.7858 15.978L65.4251 15.6681C65.5865 15.2161 65.8222 14.8513 66.1321 14.5737C66.4453 14.2928 66.8052 14.0894 67.212 13.9635C67.6187 13.8344 68.0465 13.7698 68.4952 13.7698C68.7922 13.7698 69.107 13.8053 69.4395 13.8764C69.7753 13.9442 70.0884 14.0701 70.3789 14.2541C70.6727 14.4381 70.9132 14.7012 71.1005 15.0434C71.2877 15.3824 71.3813 15.823 71.3813 16.3654V21.3047H69.9673V20.2878H69.9092C69.8156 20.475 69.6752 20.659 69.4879 20.8398C69.3007 21.0206 69.0602 21.1707 68.7664 21.2902C68.4726 21.4096 68.1207 21.4693 67.7108 21.4693ZM68.0255 20.3071C68.4258 20.3071 68.768 20.228 69.0521 20.0699C69.3394 19.9117 69.5573 19.7051 69.7058 19.45C69.8576 19.1918 69.9334 18.9157 69.9334 18.622V17.6632C69.8818 17.7148 69.7817 17.7632 69.6332 17.8084C69.4879 17.8504 69.3217 17.8875 69.1344 17.9198C68.9472 17.9489 68.7648 17.9763 68.5872 18.0021C68.4097 18.0247 68.2612 18.0441 68.1417 18.0602C67.8609 18.0958 67.6042 18.1555 67.3718 18.2394C67.1426 18.3233 66.9586 18.4444 66.8197 18.6026C66.6842 18.7576 66.6164 18.9642 66.6164 19.2224C66.6164 19.5808 66.7487 19.8519 67.0134 20.036C67.2782 20.2167 67.6155 20.3071 68.0255 20.3071ZM73.9587 24.0939C73.7424 24.0939 73.5455 24.0762 73.368 24.0407C73.1904 24.0084 73.058 23.9729 72.9709 23.9341L73.3195 22.7477C73.5843 22.8188 73.8199 22.8494 74.0265 22.8397C74.2331 22.8301 74.4155 22.7526 74.5737 22.6073C74.7351 22.462 74.8772 22.2248 74.9999 21.8955L75.179 21.4015L72.4576 13.8667H74.0072L75.8909 19.6389H75.9684L77.8521 13.8667H79.4065L76.3412 22.2974C76.1992 22.6848 76.0184 23.0125 75.7989 23.2804C75.5793 23.5516 75.3179 23.755 75.0144 23.8906C74.7109 24.0261 74.359 24.0939 73.9587 24.0939ZM92.4969 11.3873V21.3047H91.1216L86.0806 14.0313H85.9886V21.3047H84.4923V11.3873H85.8772L90.9231 18.6704H91.0151V11.3873H92.4969ZM97.6965 21.4548C96.9992 21.4548 96.3906 21.295 95.8709 20.9754C95.3511 20.6558 94.9476 20.2087 94.6602 19.634C94.3729 19.0594 94.2293 18.3879 94.2293 17.6196C94.2293 16.848 94.3729 16.1733 94.6602 15.5954C94.9476 15.0176 95.3511 14.5688 95.8709 14.2492C96.3906 13.9296 96.9992 13.7698 97.6965 13.7698C98.3938 13.7698 99.0023 13.9296 99.5221 14.2492C100.042 14.5688 100.445 15.0176 100.733 15.5954C101.02 16.1733 101.164 16.848 101.164 17.6196C101.164 18.3879 101.02 19.0594 100.733 19.634C100.445 20.2087 100.042 20.6558 99.5221 20.9754C99.0023 21.295 98.3938 21.4548 97.6965 21.4548ZM97.7013 20.2393C98.1533 20.2393 98.5278 20.1199 98.8248 19.881C99.1218 19.6421 99.3413 19.3241 99.4833 18.927C99.6286 18.53 99.7012 18.0925 99.7012 17.6147C99.7012 17.1402 99.6286 16.7044 99.4833 16.3073C99.3413 15.907 99.1218 15.5857 98.8248 15.3436C98.5278 15.1015 98.1533 14.9804 97.7013 14.9804C97.2461 14.9804 96.8684 15.1015 96.5682 15.3436C96.2712 15.5857 96.05 15.907 95.9048 16.3073C95.7627 16.7044 95.6917 17.1402 95.6917 17.6147C95.6917 18.0925 95.7627 18.53 95.9048 18.927C96.05 19.3241 96.2712 19.6421 96.5682 19.881C96.8684 20.1199 97.2461 20.2393 97.7013 20.2393ZM104.166 21.3047L101.977 13.8667H103.474L104.931 19.329H105.004L106.466 13.8667H107.962L109.415 19.3048H109.488L110.936 13.8667H112.432L110.248 21.3047H108.771L107.26 15.9344H107.149L105.638 21.3047H104.166Z" fill="black"/>
<path d="M53.5441 21.3047V11.3873H57.0791C57.8507 11.3873 58.4899 11.5278 58.9968 11.8086C59.5036 12.0895 59.8829 12.4737 60.1347 12.9611C60.3865 13.4454 60.5124 13.991 60.5124 14.5979C60.5124 15.208 60.3849 15.7568 60.1299 16.2443C59.8781 16.7286 59.4971 17.1127 58.9871 17.3968C58.4802 17.6777 57.8426 17.8181 57.0743 17.8181H54.6434V16.5494H56.9387C57.4262 16.5494 57.8216 16.4655 58.1251 16.2976C58.4286 16.1265 58.6513 15.894 58.7934 15.6003C58.9354 15.3065 59.0064 14.9724 59.0064 14.5979C59.0064 14.2234 58.9354 13.8909 58.7934 13.6003C58.6513 13.3098 58.427 13.0822 58.1203 12.9175C57.8168 12.7529 57.4165 12.6706 56.9193 12.6706H55.0405V21.3047H53.5441ZM63.5983 11.3873V21.3047H62.1504V11.3873H63.5983ZM67.7108 21.4693C67.2394 21.4693 66.8133 21.3822 66.4323 21.2078C66.0514 21.0303 65.7496 20.7736 65.5268 20.4379C65.3073 20.1021 65.1975 19.6905 65.1975 19.2031C65.1975 18.7834 65.2782 18.438 65.4396 18.1668C65.6011 17.8956 65.819 17.6809 66.0934 17.5227C66.3678 17.3645 66.6745 17.2451 67.0134 17.1644C67.3524 17.0837 67.6978 17.0223 68.0497 16.9804C68.4952 16.9287 68.8568 16.8868 69.1344 16.8545C69.4121 16.819 69.6138 16.7625 69.7397 16.685C69.8656 16.6075 69.9286 16.4816 69.9286 16.3073V16.2734C69.9286 15.8505 69.8092 15.5228 69.5703 15.2904C69.3346 15.0579 68.9827 14.9417 68.5146 14.9417C68.0271 14.9417 67.643 15.0498 67.3621 15.2661C67.0845 15.4792 66.8924 15.7165 66.7858 15.978L65.4251 15.6681C65.5865 15.2161 65.8222 14.8513 66.1321 14.5737C66.4453 14.2928 66.8052 14.0894 67.212 13.9635C67.6187 13.8344 68.0465 13.7698 68.4952 13.7698C68.7922 13.7698 69.107 13.8053 69.4395 13.8764C69.7753 13.9442 70.0884 14.0701 70.3789 14.2541C70.6727 14.4381 70.9132 14.7012 71.1005 15.0434C71.2877 15.3824 71.3813 15.823 71.3813 16.3654V21.3047H69.9673V20.2878H69.9092C69.8156 20.475 69.6752 20.659 69.4879 20.8398C69.3007 21.0206 69.0602 21.1707 68.7664 21.2902C68.4726 21.4096 68.1207 21.4693 67.7108 21.4693ZM68.0255 20.3071C68.4258 20.3071 68.768 20.228 69.0521 20.0699C69.3394 19.9117 69.5573 19.7051 69.7058 19.45C69.8576 19.1918 69.9334 18.9157 69.9334 18.622V17.6632C69.8818 17.7148 69.7817 17.7632 69.6332 17.8084C69.4879 17.8504 69.3217 17.8875 69.1344 17.9198C68.9472 17.9489 68.7648 17.9763 68.5872 18.0021C68.4097 18.0247 68.2612 18.0441 68.1417 18.0602C67.8609 18.0958 67.6042 18.1555 67.3718 18.2394C67.1426 18.3233 66.9586 18.4444 66.8197 18.6026C66.6842 18.7576 66.6164 18.9642 66.6164 19.2224C66.6164 19.5808 66.7487 19.8519 67.0134 20.036C67.2782 20.2167 67.6155 20.3071 68.0255 20.3071ZM73.9587 24.0939C73.7424 24.0939 73.5455 24.0762 73.368 24.0407C73.1904 24.0084 73.058 23.9729 72.9709 23.9341L73.3195 22.7477C73.5843 22.8188 73.8199 22.8494 74.0265 22.8397C74.2331 22.8301 74.4155 22.7526 74.5737 22.6073C74.7351 22.462 74.8772 22.2248 74.9999 21.8955L75.179 21.4015L72.4576 13.8667H74.0072L75.8909 19.6389H75.9684L77.8521 13.8667H79.4065L76.3412 22.2974C76.1992 22.6848 76.0184 23.0125 75.7989 23.2804C75.5793 23.5516 75.3179 23.755 75.0144 23.8906C74.7109 24.0261 74.359 24.0939 73.9587 24.0939ZM92.4969 11.3873V21.3047H91.1216L86.0806 14.0313H85.9886V21.3047H84.4923V11.3873H85.8772L90.9231 18.6704H91.0151V11.3873H92.4969ZM97.6965 21.4548C96.9992 21.4548 96.3906 21.295 95.8709 20.9754C95.3511 20.6558 94.9476 20.2087 94.6602 19.634C94.3729 19.0594 94.2293 18.3879 94.2293 17.6196C94.2293 16.848 94.3729 16.1733 94.6602 15.5954C94.9476 15.0176 95.3511 14.5688 95.8709 14.2492C96.3906 13.9296 96.9992 13.7698 97.6965 13.7698C98.3938 13.7698 99.0023 13.9296 99.5221 14.2492C100.042 14.5688 100.445 15.0176 100.733 15.5954C101.02 16.1733 101.164 16.848 101.164 17.6196C101.164 18.3879 101.02 19.0594 100.733 19.634C100.445 20.2087 100.042 20.6558 99.5221 20.9754C99.0023 21.295 98.3938 21.4548 97.6965 21.4548ZM97.7013 20.2393C98.1533 20.2393 98.5278 20.1199 98.8248 19.881C99.1218 19.6421 99.3413 19.3241 99.4833 18.927C99.6286 18.53 99.7012 18.0925 99.7012 17.6147C99.7012 17.1402 99.6286 16.7044 99.4833 16.3073C99.3413 15.907 99.1218 15.5857 98.8248 15.3436C98.5278 15.1015 98.1533 14.9804 97.7013 14.9804C97.2461 14.9804 96.8684 15.1015 96.5682 15.3436C96.2712 15.5857 96.05 15.907 95.9048 16.3073C95.7627 16.7044 95.6917 17.1402 95.6917 17.6147C95.6917 18.0925 95.7627 18.53 95.9048 18.927C96.05 19.3241 96.2712 19.6421 96.5682 19.881C96.8684 20.1199 97.2461 20.2393 97.7013 20.2393ZM104.166 21.3047L101.977 13.8667H103.474L104.931 19.329H105.004L106.466 13.8667H107.962L109.415 19.3048H109.488L110.936 13.8667H112.432L110.248 21.3047H108.771L107.26 15.9344H107.149L105.638 21.3047H104.166Z" fill="#AA7A24" fill-opacity="0.05"/>
<defs>
<linearGradient id="paint0_linear_8_2091" x1="51.9658" y1="-4.29074" x2="74.4418" y2="58.352" gradientUnits="userSpaceOnUse">
<stop stop-color="#EBDF9D"/>
<stop offset="1" stop-color="#D4AF37"/>
</linearGradient>
</defs>
</svg>
