<svg width="173" height="35" viewBox="0 0 173 35" fill="none" xmlns="http://www.w3.org/2000/svg">
<path d="M0.0566406 0L21.8263 34.3807H151.175L172.945 0H0.0566406Z" fill="#382010"/>
<path d="M47.4949 24V10.9091H52.161C53.1795 10.9091 54.0233 11.0945 54.6923 11.4652C55.3613 11.8359 55.862 12.343 56.1944 12.9865C56.5268 13.6257 56.693 14.3459 56.693 15.147C56.693 15.9524 56.5247 16.6768 56.188 17.3203C55.8556 17.9595 55.3528 18.4666 54.6795 18.8416C54.0105 19.2124 53.1689 19.3977 52.1547 19.3977H48.9458V17.723H51.9757C52.6191 17.723 53.1412 17.6122 53.5417 17.3906C53.9423 17.1648 54.2363 16.858 54.4238 16.4702C54.6113 16.0824 54.7051 15.6413 54.7051 15.147C54.7051 14.6527 54.6113 14.2138 54.4238 13.8303C54.2363 13.4467 53.9402 13.1463 53.5353 12.929C53.1348 12.7116 52.6064 12.603 51.9501 12.603H49.47V24H47.4949ZM60.7663 10.9091V24H58.8551V10.9091H60.7663ZM66.1948 24.2173C65.5726 24.2173 65.0101 24.1023 64.5073 23.8722C64.0044 23.6378 63.606 23.299 63.312 22.8558C63.0222 22.4126 62.8773 21.8693 62.8773 21.2259C62.8773 20.6719 62.9838 20.2159 63.1969 19.858C63.41 19.5 63.6976 19.2166 64.0598 19.0078C64.4221 18.799 64.8269 18.6413 65.2743 18.5348C65.7218 18.4283 66.1777 18.3473 66.6422 18.2919C67.2303 18.2237 67.7076 18.1683 68.074 18.1257C68.4405 18.0788 68.7069 18.0043 68.873 17.902C69.0392 17.7997 69.1223 17.6335 69.1223 17.4034V17.3587C69.1223 16.8004 68.9647 16.3679 68.6493 16.0611C68.3382 15.7543 67.8738 15.6009 67.2559 15.6009C66.6124 15.6009 66.1053 15.7436 65.7346 16.0291C65.3681 16.3104 65.1145 16.6236 64.9739 16.9688L63.1777 16.5597C63.3908 15.9631 63.7019 15.4815 64.111 15.1151C64.5243 14.7443 64.9995 14.4759 65.5364 14.3097C66.0733 14.1392 66.638 14.054 67.2303 14.054C67.6223 14.054 68.0378 14.1009 68.4767 14.1946C68.9199 14.2841 69.3333 14.4503 69.7168 14.6932C70.1046 14.9361 70.4221 15.2834 70.6692 15.7351C70.9164 16.1825 71.04 16.7642 71.04 17.4801V24H69.1735V22.6577H69.0968C68.9732 22.9048 68.7878 23.1477 68.5407 23.3864C68.2935 23.625 67.976 23.8232 67.5882 23.9808C67.2005 24.1385 66.736 24.2173 66.1948 24.2173ZM66.6103 22.6832C67.1387 22.6832 67.5904 22.5788 67.9654 22.37C68.3446 22.1612 68.6323 21.8885 68.8283 21.5518C69.0286 21.2109 69.1287 20.8466 69.1287 20.4588V19.1932C69.0605 19.2614 68.9284 19.3253 68.7324 19.3849C68.5407 19.4403 68.3212 19.4893 68.074 19.532C67.8269 19.5703 67.5861 19.6065 67.3517 19.6406C67.1174 19.6705 66.9213 19.696 66.7637 19.7173C66.3929 19.7642 66.0542 19.843 65.7473 19.9538C65.4448 20.0646 65.2019 20.2244 65.0186 20.4332C64.8397 20.6378 64.7502 20.9105 64.7502 21.2514C64.7502 21.7244 64.9249 22.0824 65.2743 22.3253C65.6238 22.5639 66.0691 22.6832 66.6103 22.6832ZM74.4421 27.6818C74.1566 27.6818 73.8967 27.6584 73.6623 27.6115C73.4279 27.5689 73.2532 27.522 73.1381 27.4709L73.5984 25.9048C73.9478 25.9986 74.2589 26.0391 74.5316 26.0263C74.8043 26.0135 75.0451 25.9112 75.2539 25.7195C75.467 25.5277 75.6545 25.2145 75.8164 24.7798L76.0529 24.1278L72.4606 14.1818H74.506L76.9925 21.8011H77.0948L79.5813 14.1818H81.6332L77.587 25.3104C77.3995 25.8217 77.1609 26.2543 76.8711 26.608C76.5813 26.9659 76.2362 27.2344 75.8356 27.4134C75.435 27.5923 74.9705 27.6818 74.4421 27.6818ZM98.9125 10.9091V24H97.0971L90.443 14.3991H90.3216V24H88.3464V10.9091H90.1745L96.8351 20.5227H96.9565V10.9091H98.9125ZM105.776 24.1982C104.855 24.1982 104.052 23.9872 103.366 23.5653C102.68 23.1435 102.147 22.5533 101.768 21.7947C101.389 21.0362 101.199 20.1499 101.199 19.1357C101.199 18.1172 101.389 17.2266 101.768 16.4638C102.147 15.701 102.68 15.1087 103.366 14.6868C104.052 14.2649 104.855 14.054 105.776 14.054C106.696 14.054 107.5 14.2649 108.186 14.6868C108.872 15.1087 109.404 15.701 109.784 16.4638C110.163 17.2266 110.353 18.1172 110.353 19.1357C110.353 20.1499 110.163 21.0362 109.784 21.7947C109.404 22.5533 108.872 23.1435 108.186 23.5653C107.5 23.9872 106.696 24.1982 105.776 24.1982ZM105.782 22.5938C106.379 22.5938 106.873 22.4361 107.265 22.1207C107.657 21.8054 107.947 21.3857 108.135 20.8615C108.326 20.3374 108.422 19.7599 108.422 19.1293C108.422 18.5028 108.326 17.9276 108.135 17.4034C107.947 16.875 107.657 16.451 107.265 16.1314C106.873 15.8118 106.379 15.652 105.782 15.652C105.181 15.652 104.683 15.8118 104.287 16.1314C103.895 16.451 103.603 16.875 103.411 17.4034C103.223 17.9276 103.13 18.5028 103.13 19.1293C103.13 19.7599 103.223 20.3374 103.411 20.8615C103.603 21.3857 103.895 21.8054 104.287 22.1207C104.683 22.4361 105.181 22.5938 105.782 22.5938ZM114.316 24L111.426 14.1818H113.402L115.326 21.392H115.422L117.352 14.1818H119.327L121.245 21.3601H121.341L123.252 14.1818H125.227L122.344 24H120.395L118.4 16.9112H118.253L116.259 24H114.316Z" fill="#8A8577"/>
</svg>
